<svg width="34" height="23" viewBox="0 0 34 23" fill="none" xmlns="http://www.w3.org/2000/svg">
<path d="M10.7812 8C11.543 8 12.1875 8.64453 12.1875 9.40625C12.1875 10.2266 11.543 10.8125 10.7812 10.8125H6.09375C5.27344 10.8125 4.6875 10.2266 4.6875 9.40625C4.6875 8.64453 5.27344 8 6.09375 8H10.7812ZM25.3125 0.5C29.9414 0.5 33.75 4.30859 33.75 8.9375V21.125C33.75 22.0625 32.8711 22.9414 31.875 22.9414H1.875C0.820312 22.9414 0 22.1211 0 21.125V8.9375C0 4.30859 3.75 0.5 8.4375 0.5H25.3125ZM14.0625 20.1875V8.9375C14.0625 5.83203 11.543 3.3125 8.4375 3.3125C5.33203 3.3125 2.8125 5.83203 2.8125 8.9375V20.1875H14.0625ZM30.9375 20.1875V8.9375C30.9375 5.83203 28.418 3.3125 25.3125 3.3125H14.6484C15.9961 4.83594 16.875 6.76953 16.875 8.9375V20.1875H30.9375ZM27.1875 8C27.6562 8 28.125 8.46875 28.125 8.99609V12.7461C28.125 13.2148 27.6562 13.625 27.1875 13.625H25.3125C24.7852 13.625 24.375 13.2148 24.375 12.6875V10.8125H21.0938C20.2734 10.8125 19.6875 10.2266 19.6875 9.40625C19.6875 8.64453 20.2734 8 21.0938 8H27.1875Z" fill="#676767"/>
</svg>
