<svg width="78" height="78" viewBox="0 0 78 78" fill="none" xmlns="http://www.w3.org/2000/svg">
    <path d="M70.8332 24.7866C72.7118 24.7866 74.5135 25.5329 75.8419 26.8613C77.1703 28.1897 77.9165 29.9914 77.9165 31.87V46.0366C77.9165 47.9153 77.1703 49.7169 75.8419 51.0453C74.5135 52.3737 72.7118 53.12 70.8332 53.12H67.072C66.2085 59.9671 62.876 66.2637 57.6998 70.8283C52.5236 75.3929 45.8595 77.9115 38.9582 77.9116V70.8283C44.5941 70.8283 49.9991 68.5895 53.9842 64.6043C57.9694 60.6192 60.2082 55.2142 60.2082 49.5783V28.3283C60.2082 22.6925 57.9694 17.2874 53.9842 13.3023C49.9991 9.31714 44.5941 7.0783 38.9582 7.0783C33.3224 7.0783 27.9173 9.31714 23.9322 13.3023C19.947 17.2874 17.7082 22.6925 17.7082 28.3283V53.12H7.08321C5.2046 53.12 3.40292 52.3737 2.07454 51.0453C0.746156 49.7169 -0.00012207 47.9153 -0.00012207 46.0366V31.87C-0.00012207 29.9914 0.746156 28.1897 2.07454 26.8613C3.40292 25.5329 5.2046 24.7866 7.08321 24.7866H10.8445C11.7087 17.9402 15.0416 11.6445 20.2177 7.0807C25.3939 2.51691 32.0575 -0.0012207 38.9582 -0.0012207C45.859 -0.0012207 52.5226 2.51691 57.6987 7.0807C62.8748 11.6445 66.2077 17.9402 67.072 24.7866H70.8332ZM23.9415 52.3585L27.6957 46.3518C31.0712 48.4663 34.9751 49.5847 38.9582 49.5783C42.9413 49.5847 46.8452 48.4663 50.2207 46.3518L53.9749 52.3585C49.4743 55.1782 44.2691 56.6698 38.9582 56.6616C33.6473 56.67 28.442 55.1784 23.9415 52.3585Z" fill="#3D868A"/>
</svg>
