<svg width="80" height="65" viewBox="0 0 80 65" fill="none" xmlns="http://www.w3.org/2000/svg">
    <path d="M57.4996 30.9995C55.9996 30.4995 54.4996 29.9995 53.4996 29.9995H39.9996V24.9995H54.9996C54.9996 21.9995 52.9996 19.9995 49.9996 19.9995H29.9996C29.9996 22.9995 31.9996 24.9995 34.9996 24.9995V29.9995C32.4996 29.9995 29.9996 28.9995 28.9996 26.9995L23.4996 17.9995C21.9996 15.9995 19.9996 14.9995 17.9996 14.9995H14.9996V11.4995C14.9996 9.99951 14.4996 8.99951 13.9996 7.49951L12.4996 3.99951C10.9996 1.49951 7.99963 -0.000488281 4.99963 -0.000488281H-0.000366211L24.9996 34.9995C26.9996 37.9995 30.4996 39.9995 33.9996 39.9995H39.9996V44.9995H34.9996V54.9995H31.9996C27.4996 54.9995 22.9996 56.9995 19.9996 59.9995H14.9996V64.9995H69.9996V59.9995H64.9996C61.9996 56.9995 57.4996 54.9995 52.9996 54.9995H49.9996V44.9995H44.9996V39.9995H52.9996C53.9996 39.9995 55.4996 40.4995 56.4996 40.9995L64.9996 45.4995C69.4996 47.9995 74.9996 47.9995 79.4996 45.4995H79.9996L57.4996 30.9995Z" fill="#3D868A"/>
</svg>
