<svg width="71" height="71" viewBox="0 0 71 71" fill="none" xmlns="http://www.w3.org/2000/svg">
<path d="M35.3257 0.75C54.603 0.75 70.3257 16.4727 70.3257 35.75C70.3257 55.1641 54.603 70.75 35.3257 70.75C15.9116 70.75 0.325684 55.1641 0.325684 35.75C0.325684 16.4727 15.9116 0.75 35.3257 0.75ZM35.3257 68.5625C38.8804 68.5625 42.5718 65.6914 45.7163 59.5391C47.2202 56.5312 48.4507 52.9766 49.271 48.875H21.2437C22.064 52.9766 23.2944 56.5312 24.7983 59.5391C27.9429 65.6914 31.6343 68.5625 35.189 68.5625H35.3257ZM20.8335 46.6875H49.6812C50.228 43.2695 50.6382 39.7148 50.6382 35.75C50.6382 31.9219 50.228 28.2305 49.6812 24.8125H20.8335C20.2866 28.2305 20.0132 31.9219 20.0132 35.75C20.0132 39.7148 20.2866 43.2695 20.8335 46.6875ZM49.271 22.625C48.4507 18.6602 47.2202 15.1055 45.7163 12.0977C42.5718 5.94531 38.8804 2.9375 35.3257 2.9375C31.6343 2.9375 27.9429 5.94531 24.7983 12.0977C23.2944 15.1055 22.064 18.6602 21.2437 22.625H49.271ZM51.8687 24.8125C52.4155 28.3672 52.8257 32.0586 52.8257 35.75C52.8257 39.5781 52.4155 43.2695 51.8687 46.6875H66.2241C67.4546 43.2695 68.1382 39.7148 68.1382 35.75C68.1382 31.9219 67.4546 28.2305 66.2241 24.8125H51.8687ZM42.2983 3.75781C46.3999 7.44922 49.8179 14.2852 51.4585 22.625H65.4038C61.1655 13.1914 52.689 6.08203 42.2983 3.75781ZM28.2163 3.75781C17.8257 6.08203 9.34912 13.1914 5.11084 22.625H19.0562C20.6968 14.2852 24.1147 7.44922 28.2163 3.75781ZM2.51318 35.75C2.51318 39.7148 3.06006 43.2695 4.29053 46.6875H18.646C18.0991 43.2695 17.8257 39.5781 17.8257 35.75C17.8257 32.0586 18.0991 28.3672 18.646 24.8125H4.29053C3.06006 28.2305 2.51318 31.9219 2.51318 35.75ZM65.4038 48.875H51.4585C49.8179 57.3516 46.3999 64.1875 42.2983 67.8789C52.689 65.5547 61.1655 58.4453 65.4038 48.875ZM19.0562 48.875H5.11084C9.34912 58.4453 17.8257 65.5547 28.2163 67.8789C24.1147 64.1875 20.6968 57.3516 19.0562 48.875Z" fill="#3D868A"/>
</svg>
