<svg width="54" height="63" viewBox="0 0 54 63" fill="none" xmlns="http://www.w3.org/2000/svg">
<path d="M50.0562 26.6914C48.0054 29.8359 46.6382 33.5273 46.228 38.5859C45.8179 43.0977 45.1343 48.9766 43.7671 54.9922L42.9468 58.8203C42.3999 60.8711 40.6226 62.375 38.5718 62.375C36.3843 62.375 34.6069 61.0078 34.1968 58.957L30.2319 43.3711C29.8218 41.7305 28.4546 40.5 26.9507 40.5C25.3101 40.5 23.8062 41.7305 23.5327 43.3711L19.5679 58.957C19.1577 61.0078 17.3804 62.375 15.1929 62.375C13.1421 62.375 11.3647 61.0078 10.8179 58.8203L9.99756 54.9922C8.63037 49.1133 8.0835 43.5078 7.53662 38.5859C7.12646 33.5273 5.896 29.8359 3.7085 26.6914C0.837402 22.8633 0.0170898 17.9414 1.11084 13.1562C2.47803 7.55078 6.85303 3.03906 12.1851 1.53516C14.9194 0.851562 17.6538 1.26172 20.5249 2.76562L31.8726 10.2852C32.4194 10.6953 32.5562 11.3789 32.146 11.7891C31.8726 12.3359 31.189 12.4727 30.6421 12.1992L19.4312 4.67969C17.1069 3.44922 14.9194 3.03906 12.7319 3.58594C8.0835 4.95312 4.39209 8.78125 3.29834 13.7031C2.20459 17.9414 3.0249 22.043 5.48584 25.4609C7.94678 28.8789 9.31396 32.9805 9.72412 38.4492C10.1343 43.2344 10.8179 48.8398 12.0483 54.4453L13.0054 58.4102C13.1421 59.5039 14.0991 60.3242 15.1929 60.3242C16.2866 60.3242 17.2437 59.5039 17.5171 58.4102L21.3452 42.8242C22.0288 40.2266 24.2163 38.3125 26.814 38.3125C29.5483 38.3125 31.7358 40.2266 32.4194 42.8242L36.2476 58.4102C36.521 59.5039 37.478 60.1875 38.5718 60.1875C39.6655 60.1875 40.4858 59.5039 40.7593 58.4102L41.7163 54.4453C42.9468 48.7031 43.6304 42.8242 44.0405 38.4492C44.4507 32.9805 45.8179 28.8789 48.2788 25.4609C50.7397 22.043 51.5601 17.9414 50.4663 13.7031C49.3726 8.78125 45.6812 4.81641 41.0327 3.58594C38.1616 2.90234 35.1538 3.72266 31.8726 6.32031C31.4624 6.59375 30.7788 6.59375 30.3687 6.04688C29.9585 5.5 30.0952 4.81641 30.6421 4.54297C34.4702 1.67188 38.1616 0.578125 41.5796 1.53516C46.9116 3.03906 51.2866 7.55078 52.6538 13.1562C53.7476 17.9414 52.9272 22.8633 50.0562 26.6914Z" fill="#3D868A"/>
</svg>
