<svg width="71" height="71" viewBox="0 0 71 71" fill="none" xmlns="http://www.w3.org/2000/svg">
<path d="M47.3569 40.125C51.4585 40.125 55.0132 43.6797 55.0132 47.7812C55.0132 52.0195 51.4585 55.4375 47.3569 55.4375H23.2944C19.0562 55.4375 15.6382 52.0195 15.6382 47.7812C15.6382 43.6797 19.0562 40.125 23.2944 40.125H47.3569ZM23.2944 42.3125C20.1499 42.3125 17.8257 44.7734 17.8257 47.7812C17.8257 50.9258 20.1499 53.25 23.2944 53.25H24.3882V42.3125H23.2944ZM26.5757 53.25H34.2319V42.3125H26.5757V53.25ZM44.0757 42.3125H36.4194V53.25H44.0757V42.3125ZM46.2632 53.25H47.3569C50.3647 53.25 52.8257 50.9258 52.8257 47.7812C52.8257 44.7734 50.3647 42.3125 47.3569 42.3125H46.2632V53.25ZM26.5757 29.1875C26.5757 30.418 25.6187 31.375 24.3882 31.375C23.1577 31.375 22.2007 30.418 22.2007 29.1875C22.2007 28.0938 23.1577 27 24.3882 27C25.6187 27 26.5757 28.0938 26.5757 29.1875ZM44.0757 29.1875C44.0757 28.0938 45.0327 27 46.2632 27C47.4937 27 48.4507 28.0938 48.4507 29.1875C48.4507 30.418 47.4937 31.375 46.2632 31.375C45.0327 31.375 44.0757 30.418 44.0757 29.1875ZM0.325684 35.75C0.325684 16.4727 15.9116 0.75 35.3257 0.75C54.603 0.75 70.3257 16.4727 70.3257 35.75C70.3257 55.1641 54.603 70.75 35.3257 70.75C15.9116 70.75 0.325684 55.1641 0.325684 35.75ZM35.3257 2.9375C17.1421 2.9375 2.51318 17.7031 2.51318 35.75C2.51318 53.9336 17.1421 68.5625 35.3257 68.5625C53.3726 68.5625 68.1382 53.9336 68.1382 35.75C68.1382 17.7031 53.3726 2.9375 35.3257 2.9375Z" fill="#3D868A"/>
</svg>
