<svg width="88" height="49" viewBox="0 0 88 49" fill="none" xmlns="http://www.w3.org/2000/svg">
<path d="M61.5757 22.75V3.74609C61.5757 1.55859 64.3101 0.738281 65.5405 2.51562L83.1772 29.1758C85.228 32.0469 83.0405 35.875 79.6226 35.875H9.07568V3.74609C9.07568 1.55859 11.8101 0.738281 13.0405 2.51562L26.5757 22.75V3.74609C26.5757 1.55859 29.3101 0.738281 30.5405 2.51562L44.0757 22.75V3.74609C44.0757 1.55859 46.8101 0.738281 48.0405 2.51562L61.5757 22.75ZM81.3999 30.4062L63.7632 3.74609V33.6875H79.6226C81.2632 33.6875 82.3569 31.7734 81.3999 30.4062ZM61.5757 26.7148L46.2632 3.74609V33.6875H61.5757V26.7148ZM44.0757 26.7148L28.7632 3.74609V33.6875H44.0757V26.7148ZM11.2632 33.6875H26.5757V26.7148L11.2632 3.74609V33.6875ZM0.325684 47.9062C0.325684 47.3594 0.73584 46.8125 1.41943 46.8125H86.7319C87.2788 46.8125 87.8257 47.3594 87.8257 47.9062C87.8257 48.5898 87.2788 49 86.7319 49H1.41943C0.73584 49 0.325684 48.5898 0.325684 47.9062Z" fill="#3D868A"/>
</svg>
