<svg width="71" height="62" viewBox="0 0 71 62" fill="none" xmlns="http://www.w3.org/2000/svg">
<path d="M35.3257 11.0625L37.2397 8.73828C41.3413 3.40625 48.1772 0.945312 54.7397 2.03906C63.7632 3.54297 70.3257 11.1992 70.3257 20.2227V21.8633C70.3257 27.6055 67.8647 33.0742 63.7632 36.9023L39.0171 60.0078C38.0601 60.9648 36.6929 61.375 35.3257 61.375C33.8218 61.375 32.4546 60.9648 31.4976 60.0078L6.75146 36.9023C2.6499 33.0742 0.325684 27.6055 0.325684 21.8633V20.2227C0.325684 11.1992 6.75146 3.54297 15.7749 2.03906C22.3374 0.945312 29.1733 3.40625 33.2749 8.73828L35.3257 11.0625ZM35.3257 14.6172L31.6343 10.1055C27.9429 5.45703 21.9272 3.13281 16.1851 4.08984C8.25537 5.45703 2.51318 12.293 2.51318 20.2227V21.8633C2.51318 26.9219 4.56396 31.8438 8.25537 35.2617L33.0015 58.3672C33.5483 58.9141 34.3687 59.1875 35.3257 59.1875C36.146 59.1875 36.9663 58.9141 37.5132 58.3672L62.2593 35.2617C65.9507 31.8438 68.1382 26.9219 68.1382 21.8633V20.2227C68.1382 12.293 62.2593 5.45703 54.3296 4.08984C48.5874 3.13281 42.5718 5.45703 38.8804 10.1055L35.3257 14.6172Z" fill="#3D868A"/>
</svg>
