<svg width="80" height="71" viewBox="0 0 80 71" fill="none" xmlns="http://www.w3.org/2000/svg">
<path d="M9.07568 19.3438C5.11084 19.3438 1.96631 16.1992 1.96631 12.2344C1.96631 8.40625 5.11084 5.125 9.07568 5.125C12.9038 5.125 16.1851 8.40625 16.1851 12.2344C16.1851 16.1992 12.9038 19.3438 9.07568 19.3438ZM9.07568 7.3125C6.34131 7.3125 4.15381 9.63672 4.15381 12.2344C4.15381 14.9688 6.34131 17.1562 9.07568 17.1562C11.6733 17.1562 13.9976 14.9688 13.9976 12.2344C13.9976 9.63672 11.6733 7.3125 9.07568 7.3125ZM30.9507 31.375C33.2749 31.375 35.3257 33.4258 35.3257 35.75C35.3257 38.2109 33.2749 40.125 30.9507 40.125H23.021C21.2437 40.125 19.603 39.4414 18.3726 38.2109L15.5015 35.3398V46.4141L21.1069 54.7539C21.7905 55.9844 22.064 57.3516 22.064 58.7188V66.375C22.064 68.8359 20.1499 70.75 17.689 70.75C15.228 70.75 13.314 68.8359 13.314 66.375V58.7188L9.34912 52.9766C9.2124 52.8398 9.07568 52.7031 9.07568 52.7031L8.93896 66.375C8.93896 68.8359 7.0249 70.75 4.56396 70.75C2.23975 70.75 0.325684 68.8359 0.325684 66.375V31.5117C0.325684 29.1875 1.146 26.8633 2.78662 25.2227C4.42725 23.582 6.61475 22.625 9.07568 22.625H11.5366C13.8608 22.625 16.0483 23.582 17.689 25.2227L23.978 31.375H30.9507ZM30.9507 37.9375C32.0444 37.9375 33.1382 36.9805 33.1382 35.75C33.1382 34.6562 32.0444 33.5625 30.9507 33.5625H23.978C23.2944 33.5625 22.7476 33.4258 22.3374 33.0156L16.1851 26.8633C14.9546 25.4961 13.314 24.8125 11.5366 24.8125H9.07568C7.29834 24.8125 5.65771 25.4961 4.42725 26.8633C3.19678 28.0938 2.51318 29.7344 2.51318 31.5117V66.375C2.51318 67.6055 3.47021 68.5625 4.56396 68.5625C5.79443 68.5625 6.75146 67.6055 6.75146 66.375L6.88818 52.7031C6.88818 51.8828 7.29834 51.1992 7.84521 50.7891C8.25537 50.6523 8.66553 50.5156 9.07568 50.5156C9.34912 50.5156 9.75928 50.5156 10.0327 50.7891C10.1694 50.7891 10.3062 50.9258 10.4429 51.0625C10.7163 51.1992 10.9897 51.4727 11.1265 51.7461L15.0913 57.625C15.3647 57.8984 15.5015 58.3086 15.5015 58.7188V66.375C15.5015 67.6055 16.4585 68.5625 17.689 68.5625C18.9194 68.5625 19.8765 67.6055 19.8765 66.375V58.7188C19.8765 57.7617 19.7397 56.8047 19.1929 55.8477L13.7241 47.6445C13.4507 47.2344 13.314 46.8242 13.314 46.4141V35.3398C13.314 34.5195 13.8608 33.6992 14.6812 33.4258C14.9546 33.2891 15.228 33.1523 15.5015 33.1523C16.0483 33.1523 16.7319 33.4258 17.1421 33.8359L19.8765 36.707C20.8335 37.5273 21.9272 37.9375 23.021 37.9375H30.9507ZM32.0444 44.5C32.5913 44.5 33.1382 45.0469 33.1382 45.5938V69.6562C33.1382 70.3398 32.5913 70.75 32.0444 70.75C31.3608 70.75 30.9507 70.3398 30.9507 69.6562V45.5938C30.9507 45.0469 31.3608 44.5 32.0444 44.5ZM40.7944 1.84375C40.7944 2.52734 40.2476 2.9375 39.7007 2.9375H36.4194C34.5054 2.9375 33.1382 4.44141 33.1382 6.21875V25.9062C33.1382 26.5898 32.5913 27 32.0444 27C31.3608 27 30.9507 26.5898 30.9507 25.9062V6.21875C30.9507 3.21094 33.2749 0.75 36.4194 0.75H39.7007C40.2476 0.75 40.7944 1.29688 40.7944 1.84375ZM73.6069 0.75C76.6147 0.75 79.0757 3.21094 79.0757 6.21875V69.6562C79.0757 70.3398 78.5288 70.75 77.9819 70.75C77.2983 70.75 76.8882 70.3398 76.8882 69.6562V6.21875C76.8882 4.44141 75.3843 2.9375 73.6069 2.9375H71.4194V60.9062C71.4194 61.5898 70.8726 62 70.3257 62C69.6421 62 69.2319 61.5898 69.2319 60.9062V1.84375C69.2319 1.29688 69.6421 0.75 70.3257 0.75H73.6069ZM61.5757 0.75C62.1226 0.75 62.6694 1.29688 62.6694 1.84375V60.9062C62.6694 61.5898 62.1226 62 61.5757 62C60.8921 62 60.4819 61.5898 60.4819 60.9062V1.84375C60.4819 1.29688 60.8921 0.75 61.5757 0.75ZM52.8257 0.75C53.3726 0.75 53.9194 1.29688 53.9194 1.84375V60.9062C53.9194 61.5898 53.3726 62 52.8257 62C52.1421 62 51.7319 61.5898 51.7319 60.9062V1.84375C51.7319 1.29688 52.1421 0.75 52.8257 0.75ZM44.0757 0.75C44.6226 0.75 45.1694 1.29688 45.1694 1.84375V35.75L40.6577 61.1797C40.6577 61.7266 40.1108 62 39.7007 62C39.564 62 39.564 62 39.4272 62C38.8804 62 38.4702 61.3164 38.6069 60.7695L42.9819 35.6133V1.84375C42.9819 1.29688 43.3921 0.75 44.0757 0.75Z" fill="#3D868A"/>
</svg>
