<svg width="71" height="71" viewBox="0 0 71 71" fill="none" xmlns="http://www.w3.org/2000/svg">
<path d="M19.3296 46.9609C19.8765 46.5508 20.5601 46.6875 20.8335 47.2344C23.7046 51.3359 28.4897 55.4375 35.189 55.4375C42.0249 55.4375 46.8101 51.3359 49.6812 47.2344C49.9546 46.6875 50.6382 46.5508 51.1851 46.9609C51.7319 47.2344 51.8687 47.918 51.4585 48.4648C48.4507 52.8398 42.9819 57.625 35.189 57.625C27.5327 57.625 22.064 52.8398 19.0562 48.4648C18.646 47.918 18.7827 47.2344 19.3296 46.9609ZM26.5757 31.375C26.5757 32.6055 25.6187 33.5625 24.3882 33.5625C23.1577 33.5625 22.2007 32.6055 22.2007 31.375C22.2007 30.2812 23.1577 29.1875 24.3882 29.1875C25.6187 29.1875 26.5757 30.2812 26.5757 31.375ZM44.0757 31.375C44.0757 30.2812 45.0327 29.1875 46.2632 29.1875C47.4937 29.1875 48.4507 30.2812 48.4507 31.375C48.4507 32.6055 47.4937 33.5625 46.2632 33.5625C45.0327 33.5625 44.0757 32.6055 44.0757 31.375ZM67.728 22.625H69.2319C69.7788 22.625 70.3257 23.1719 70.3257 23.7188C70.3257 24.4023 69.7788 24.8125 69.2319 24.8125H68.5483C69.6421 28.3672 70.3257 32.0586 70.3257 35.75C70.3257 55.1641 54.603 70.75 35.3257 70.75C15.9116 70.75 0.325684 55.1641 0.325684 35.75C0.325684 32.0586 0.872559 28.3672 1.96631 24.8125H1.41943C0.73584 24.8125 0.325684 24.4023 0.325684 23.7188C0.325684 23.1719 0.73584 22.625 1.41943 22.625H2.78662C7.98193 9.91016 20.5601 0.75 35.3257 0.75C49.9546 0.75 62.5327 9.91016 67.728 22.625ZM35.3257 68.5625C53.3726 68.5625 68.1382 53.9336 68.1382 35.75C68.1382 31.9219 67.4546 28.2305 66.2241 24.8125H63.353C63.6265 25.4961 63.7632 26.3164 63.7632 27V35.75C63.7632 39.4414 60.7554 42.3125 57.2007 42.3125H44.0757C40.3843 42.3125 37.5132 39.4414 37.5132 35.75V27C37.5132 26.3164 37.5132 25.4961 37.7866 24.8125H32.728C33.0015 25.4961 33.0015 26.3164 33.0015 27V35.75C33.0015 39.4414 30.1304 42.3125 26.439 42.3125H13.314C9.75928 42.3125 6.75146 39.4414 6.75146 35.75V27C6.75146 26.3164 6.88818 25.4961 7.16162 24.8125H4.29053C3.06006 28.2305 2.37646 31.9219 2.37646 35.75C2.37646 53.9336 17.1421 68.5625 35.189 68.5625H35.3257ZM39.1538 22.625C40.3843 21.3945 42.0249 20.4375 44.0757 20.4375H57.2007C59.1147 20.4375 60.7554 21.3945 61.9858 22.625H65.4038C60.2085 11.1406 48.7241 2.9375 35.3257 2.9375C21.7905 2.9375 10.3062 11.1406 5.11084 22.625H8.52881C9.75928 21.3945 11.3999 20.4375 13.4507 20.4375H26.5757C28.4897 20.4375 30.1304 21.3945 31.3608 22.625H39.1538ZM9.07568 35.75C9.07568 38.2109 10.9897 40.125 13.4507 40.125H26.5757C28.8999 40.125 30.9507 38.2109 30.9507 35.75V27C30.9507 24.6758 28.8999 22.625 26.5757 22.625H13.4507C10.9897 22.625 9.07568 24.6758 9.07568 27V35.75ZM44.0757 22.625C41.6147 22.625 39.7007 24.6758 39.7007 27V35.75C39.7007 38.2109 41.6147 40.125 44.0757 40.125H57.2007C59.5249 40.125 61.5757 38.2109 61.5757 35.75V27C61.5757 24.6758 59.5249 22.625 57.2007 22.625H44.0757Z" fill="#3D868A"/>
</svg>
