<svg width="27" height="31" viewBox="0 0 27 31" fill="none" xmlns="http://www.w3.org/2000/svg">
    <path d="M8.90625 4.5H17.3438V2.15625C17.3438 1.39453 17.9297 0.75 18.75 0.75C19.5117 0.75 20.1562 1.39453 20.1562 2.15625V4.5H22.5C24.5508 4.5 26.25 6.19922 26.25 8.25V27C26.25 29.1094 24.5508 30.75 22.5 30.75H3.75C1.64062 30.75 0 29.1094 0 27V8.25C0 6.19922 1.64062 4.5 3.75 4.5H6.09375V2.15625C6.09375 1.39453 6.67969 0.75 7.5 0.75C8.26172 0.75 8.90625 1.39453 8.90625 2.15625V4.5ZM2.8125 15.2812H7.5V12H2.8125V15.2812ZM2.8125 18.0938V21.8438H7.5V18.0938H2.8125ZM10.3125 18.0938V21.8438H15.9375V18.0938H10.3125ZM18.75 18.0938V21.8438H23.4375V18.0938H18.75ZM23.4375 12H18.75V15.2812H23.4375V12ZM23.4375 24.6562H18.75V27.9375H22.5C22.9688 27.9375 23.4375 27.5273 23.4375 27V24.6562ZM15.9375 24.6562H10.3125V27.9375H15.9375V24.6562ZM7.5 24.6562H2.8125V27C2.8125 27.5273 3.22266 27.9375 3.75 27.9375H7.5V24.6562ZM15.9375 12H10.3125V15.2812H15.9375V12Z" fill="#676767"/>
</svg>
