<svg width="14" height="13" viewBox="0 0 14 13" fill="none" xmlns="http://www.w3.org/2000/svg">
<path d="M6.04894 0.927174C6.3483 0.00586367 7.6517 0.00586295 7.95106 0.927174L8.79611 3.52799C8.92999 3.94001 9.31394 4.21897 9.74717 4.21897H12.4818C13.4505 4.21897 13.8533 5.45859 13.0696 6.02799L10.8572 7.63538C10.5067 7.89002 10.3601 8.34139 10.494 8.75341L11.339 11.3542C11.6384 12.2755 10.5839 13.0417 9.80017 12.4723L7.58779 10.8649C7.2373 10.6102 6.7627 10.6102 6.41222 10.8649L4.19983 12.4723C3.41612 13.0417 2.36164 12.2755 2.66099 11.3542L3.50604 8.75341C3.63992 8.34139 3.49326 7.89002 3.14277 7.63538L0.930391 6.02799C0.146677 5.45859 0.549452 4.21897 1.51818 4.21897H4.25283C4.68606 4.21897 5.07001 3.94001 5.20389 3.52799L6.04894 0.927174Z" fill="#90CE40"/>
</svg>
