<svg width="80" height="62" viewBox="0 0 80 62" fill="none" xmlns="http://www.w3.org/2000/svg">
<path d="M77.9819 59.1875C78.5288 59.1875 79.0757 59.7344 79.0757 60.2812C79.0757 60.9648 78.5288 61.375 77.9819 61.375H4.70068C2.10303 61.375 0.0522461 59.1875 0.325684 56.5898C0.462402 54.4023 2.51318 52.625 4.8374 52.625H6.88818V31.8438C6.88818 31.2969 7.29834 30.75 7.98193 30.75C8.52881 30.75 9.07568 31.2969 9.07568 31.8438V52.625H15.6382V31.8438C15.6382 31.2969 16.0483 30.75 16.7319 30.75C17.2788 30.75 17.8257 31.2969 17.8257 31.8438V52.625H24.3882V31.8438C24.3882 31.2969 24.7983 30.75 25.4819 30.75C26.0288 30.75 26.5757 31.2969 26.5757 31.8438V52.625H33.1382V31.8438C33.1382 31.2969 33.5483 30.75 34.2319 30.75C34.7788 30.75 35.3257 31.2969 35.3257 31.8438V52.625H41.8882V31.8438C41.8882 31.2969 42.2983 30.75 42.9819 30.75C43.5288 30.75 44.0757 31.2969 44.0757 31.8438V52.625H50.6382V31.8438C50.6382 31.2969 51.0483 30.75 51.7319 30.75C52.2788 30.75 52.8257 31.2969 52.8257 31.8438V52.625H59.3882V31.8438C59.3882 31.2969 59.7983 30.75 60.4819 30.75C61.0288 30.75 61.5757 31.2969 61.5757 31.8438V52.625H77.9819C78.5288 52.625 79.0757 53.1719 79.0757 53.7188C79.0757 54.4023 78.5288 54.8125 77.9819 54.8125H4.70068C3.60693 54.8125 2.6499 55.6328 2.51318 56.7266C2.23975 58.0938 3.3335 59.1875 4.70068 59.1875H77.9819ZM9.07568 26.375C4.15381 26.375 0.325684 22.5469 0.325684 17.625C0.325684 12.8398 4.15381 8.875 9.07568 8.875H44.3491C46.2632 8.875 47.4937 7.64453 47.9038 6.41406C48.4507 5.18359 48.4507 3.40625 47.0835 2.03906C46.8101 1.76562 46.6733 1.35547 46.8101 0.945312C47.0835 0.398438 47.4937 0.125 47.9038 0.125C57.7476 0.125 65.9507 7.91797 65.9507 17.3516C65.9507 22.4102 61.5757 26.375 56.3804 26.375H9.07568ZM9.07568 11.0625C5.38428 11.0625 2.51318 14.0703 2.51318 17.625C2.51318 21.3164 5.38428 24.1875 9.07568 24.1875H56.3804C60.3452 24.1875 63.7632 21.1797 63.7632 17.3516C63.7632 9.69531 57.7476 3.54297 49.9546 2.44922C50.6382 3.95312 50.6382 5.59375 49.9546 7.23438C48.9976 9.55859 46.8101 11.0625 44.3491 11.0625H9.07568Z" fill="#3D868A"/>
</svg>
