<svg width="80" height="62" viewBox="0 0 80 62" fill="none" xmlns="http://www.w3.org/2000/svg">
<path d="M70.3257 35.125C75.1108 35.125 79.0757 39.0898 79.0757 43.875V48.25C79.0757 55.6328 73.1968 61.375 65.9507 61.375H13.4507C6.06787 61.375 0.325684 55.6328 0.325684 48.25V43.875C0.325684 39.0898 4.15381 35.125 9.07568 35.125H70.3257ZM57.2007 40.5938V42.7812C57.2007 45.9258 59.5249 48.25 62.6694 48.25H64.8569C67.8647 48.25 70.3257 45.9258 70.3257 42.7812V40.5938C70.3257 38.8164 68.8218 37.3125 67.0444 37.3125H60.4819C58.5679 37.3125 57.2007 38.8164 57.2007 40.5938ZM40.7944 40.5938V42.7812C40.7944 45.9258 43.1187 48.25 46.2632 48.25H49.5444C52.5522 48.25 55.0132 45.9258 55.0132 42.7812V40.5938C55.0132 38.8164 53.5093 37.3125 51.7319 37.3125H44.0757C42.1616 37.3125 40.7944 38.8164 40.7944 40.5938ZM24.3882 40.5938V42.7812C24.3882 45.9258 26.7124 48.25 29.8569 48.25H33.1382C36.146 48.25 38.6069 45.9258 38.6069 42.7812V40.5938C38.6069 38.8164 37.103 37.3125 35.3257 37.3125H27.6694C25.7554 37.3125 24.3882 38.8164 24.3882 40.5938ZM9.07568 40.5938V42.7812C9.07568 45.9258 11.3999 48.25 14.5444 48.25H16.7319C19.7397 48.25 22.2007 45.9258 22.2007 42.7812V40.5938C22.2007 38.8164 20.6968 37.3125 18.9194 37.3125H12.3569C10.4429 37.3125 9.07568 38.8164 9.07568 40.5938ZM76.8882 48.25V43.875C76.8882 40.7305 74.4272 37.9961 71.2827 37.4492C71.9663 38.4062 72.5132 39.5 72.5132 40.5938V42.7812C72.5132 47.0195 68.9585 50.4375 64.8569 50.4375H62.6694C59.7983 50.4375 57.3374 48.9336 56.1069 46.7461C54.7397 48.9336 52.2788 50.4375 49.5444 50.4375H46.2632C43.3921 50.4375 40.9312 48.9336 39.7007 46.7461C38.3335 48.9336 35.8726 50.4375 33.1382 50.4375H29.8569C26.9858 50.4375 24.5249 48.9336 23.2944 46.7461C21.9272 48.9336 19.4663 50.4375 16.7319 50.4375H14.5444C10.3062 50.4375 6.88818 47.0195 6.88818 42.7812V40.5938C6.88818 39.5 7.29834 38.4062 7.98193 37.4492C4.8374 37.9961 2.51318 40.7305 2.51318 43.875V48.25C2.51318 54.4023 7.29834 59.1875 13.4507 59.1875H65.9507C71.9663 59.1875 76.8882 54.4023 76.8882 48.25ZM65.9507 0.125C73.1968 0.125 79.0757 6.00391 79.0757 13.25V22C79.0757 26.9219 75.1108 30.75 70.3257 30.75H9.07568C4.15381 30.75 0.325684 26.9219 0.325684 22V13.25C0.325684 6.00391 6.06787 0.125 13.4507 0.125H65.9507ZM22.2007 25.2812V22C22.2007 18.9922 19.7397 16.5312 16.7319 16.5312H14.5444C11.3999 16.5312 9.07568 18.9922 9.07568 22V25.2812C9.07568 27.1953 10.4429 28.5625 12.3569 28.5625H18.9194C20.6968 28.5625 22.2007 27.1953 22.2007 25.2812ZM38.6069 25.2812V17.0781C38.6069 13.25 35.3257 9.96875 31.4976 9.96875C27.5327 9.96875 24.3882 13.25 24.3882 17.0781V25.2812C24.3882 27.1953 25.7554 28.5625 27.6694 28.5625H35.3257C37.103 28.5625 38.6069 27.1953 38.6069 25.2812ZM55.0132 25.2812V17.0781C55.0132 13.25 51.7319 9.96875 47.9038 9.96875C43.939 9.96875 40.7944 13.25 40.7944 17.0781V25.2812C40.7944 27.1953 42.1616 28.5625 44.0757 28.5625H51.7319C53.5093 28.5625 55.0132 27.1953 55.0132 25.2812ZM70.3257 25.2812V22C70.3257 18.9922 67.8647 16.5312 64.8569 16.5312H62.6694C59.5249 16.5312 57.2007 18.9922 57.2007 22V25.2812C57.2007 27.1953 58.5679 28.5625 60.4819 28.5625H67.0444C68.8218 28.5625 70.3257 27.1953 70.3257 25.2812ZM76.8882 22V13.25C76.8882 7.23438 71.9663 2.3125 65.9507 2.3125H13.4507C7.29834 2.3125 2.51318 7.23438 2.51318 13.25V22C2.51318 25.2812 4.8374 28.0156 7.98193 28.5625C7.29834 27.6055 6.88818 26.5117 6.88818 25.2812V22C6.88818 17.8984 10.3062 14.3438 14.5444 14.3438H16.7319C18.7827 14.3438 20.8335 15.3008 22.2007 16.8047C22.3374 11.8828 26.439 7.78125 31.4976 7.78125C35.0522 7.78125 38.0601 9.83203 39.7007 12.8398C41.2046 9.83203 44.2124 7.78125 47.9038 7.78125C52.8257 7.78125 56.9272 11.8828 57.064 16.8047C58.4312 15.3008 60.4819 14.3438 62.6694 14.3438H64.8569C68.9585 14.3438 72.5132 17.8984 72.5132 22V25.2812C72.5132 26.5117 71.9663 27.6055 71.2827 28.5625C74.4272 28.0156 76.8882 25.2812 76.8882 22Z" fill="#3D868A"/>
</svg>
