<svg width="74" height="82" viewBox="0 0 74 82" fill="none" xmlns="http://www.w3.org/2000/svg">
    <g filter="url(#filter0_d_115_45)">
        <path d="M23.833 37.9988C20.0757 37.9988 16.4724 36.5062 13.8156 33.8495C11.1589 31.1927 9.6663 27.5893 9.6663 23.8321V12.4988C9.6663 11.7473 9.96481 11.0267 10.4962 10.4953C11.0275 9.96396 11.7482 9.66545 12.4996 9.66545H15.333C16.0844 9.66545 16.8051 9.36694 17.3364 8.83558C17.8678 8.30423 18.1663 7.58356 18.1663 6.83211C18.1663 6.08067 17.8678 5.36 17.3364 4.82864C16.8051 4.29729 16.0844 3.99878 15.333 3.99878H12.4996C10.2453 3.99878 8.08329 4.89431 6.48923 6.48837C4.89517 8.08243 3.99963 10.2444 3.99963 12.4988V23.8321C4.00328 27.033 4.78382 30.1852 6.27423 33.018C7.76465 35.8508 9.92038 38.2795 12.5563 40.0954C15.0888 42.3282 17.1426 45.0509 18.5938 48.0994C20.045 51.1478 20.8634 54.4587 20.9996 57.8321C20.9996 63.0922 23.0892 68.1369 26.8087 71.8564C30.5282 75.5759 35.5728 77.6655 40.833 77.6655C46.0931 77.6655 51.1378 75.5759 54.8573 71.8564C58.5767 68.1369 60.6663 63.0922 60.6663 57.8321V54.6021C63.3372 53.9125 65.6648 52.2725 67.213 49.9894C68.7612 47.7064 69.4236 44.9371 69.076 42.2006C68.7284 39.4641 67.3947 36.9484 65.325 35.1249C63.2552 33.3014 60.5914 32.2953 57.833 32.2953C55.0745 32.2953 52.4107 33.3014 50.341 35.1249C48.2712 36.9484 46.9375 39.4641 46.59 42.2006C46.2424 44.9371 46.9048 47.7064 48.4529 49.9894C50.0011 52.2725 52.3288 53.9125 54.9996 54.6021V57.8321C54.9996 61.5893 53.5071 65.1927 50.8503 67.8495C48.1936 70.5062 44.5902 71.9988 40.833 71.9988C37.0757 71.9988 33.4724 70.5062 30.8156 67.8495C28.1589 65.1927 26.6663 61.5893 26.6663 57.8321C26.8097 54.4545 27.637 51.1411 29.098 48.0924C30.559 45.0437 32.6234 42.3232 35.1663 40.0954C37.7918 38.2731 39.9365 35.8417 41.4168 33.0093C42.8971 30.177 43.669 27.028 43.6663 23.8321V12.4988C43.6663 10.2444 42.7708 8.08243 41.1767 6.48837C39.5827 4.89431 37.4206 3.99878 35.1663 3.99878H32.333C31.5815 3.99878 30.8609 4.29729 30.3295 4.82864C29.7981 5.36 29.4996 6.08067 29.4996 6.83211C29.4996 7.58356 29.7981 8.30423 30.3295 8.83558C30.8609 9.36694 31.5815 9.66545 32.333 9.66545H35.1663C35.9177 9.66545 36.6384 9.96396 37.1698 10.4953C37.7011 11.0267 37.9996 11.7473 37.9996 12.4988V23.8321C37.9996 25.6925 37.6332 27.5347 36.9213 29.2535C36.2093 30.9722 35.1658 32.534 33.8503 33.8495C32.5348 35.165 30.9731 36.2085 29.2543 36.9204C27.5355 37.6324 25.6934 37.9988 23.833 37.9988ZM57.833 49.3321C56.3301 49.3321 54.8887 48.7351 53.826 47.6724C52.7633 46.6097 52.1663 45.1683 52.1663 43.6654C52.1663 42.1626 52.7633 40.7212 53.826 39.6585C54.8887 38.5958 56.3301 37.9988 57.833 37.9988C59.3359 37.9988 60.7772 38.5958 61.8399 39.6585C62.9026 40.7212 63.4996 42.1626 63.4996 43.6654C63.4996 45.1683 62.9026 46.6097 61.8399 47.6724C60.7772 48.7351 59.3359 49.3321 57.833 49.3321Z" fill="white"/>
    </g>
    <defs>
        <filter id="filter0_d_115_45" x="-0.000366211" y="-0.0012207" width="73.1667" height="81.6666" filterUnits="userSpaceOnUse" color-interpolation-filters="sRGB">
            <feFlood flood-opacity="0" result="BackgroundImageFix"/>
            <feColorMatrix in="SourceAlpha" type="matrix" values="0 0 0 0 0 0 0 0 0 0 0 0 0 0 0 0 0 0 127 0" result="hardAlpha"/>
            <feOffset/>
            <feGaussianBlur stdDeviation="2"/>
            <feComposite in2="hardAlpha" operator="out"/>
            <feColorMatrix type="matrix" values="0 0 0 0 1 0 0 0 0 1 0 0 0 0 1 0 0 0 0.25 0"/>
            <feBlend mode="normal" in2="BackgroundImageFix" result="effect1_dropShadow_115_45"/>
            <feBlend mode="normal" in="SourceGraphic" in2="effect1_dropShadow_115_45" result="shape"/>
        </filter>
    </defs>
</svg>
