<svg width="23" height="31" viewBox="0 0 23 31" fill="none" xmlns="http://www.w3.org/2000/svg">
<path d="M15.9375 12C15.9375 14.6367 13.8281 16.6875 11.25 16.6875C8.61328 16.6875 6.5625 14.6367 6.5625 12C6.5625 9.42188 8.61328 7.3125 11.25 7.3125C13.8281 7.3125 15.9375 9.42188 15.9375 12ZM11.25 10.125C10.1953 10.125 9.375 11.0039 9.375 12C9.375 13.0547 10.1953 13.875 11.25 13.875C12.2461 13.875 13.125 13.0547 13.125 12C13.125 11.0039 12.2461 10.125 11.25 10.125ZM22.5 12C22.5 17.1562 15.6445 26.2383 12.5977 30.0469C11.8945 30.9258 10.5469 30.9258 9.84375 30.0469C6.79688 26.2383 0 17.1562 0 12C0 5.78906 4.98047 0.75 11.25 0.75C17.4609 0.75 22.5 5.78906 22.5 12ZM11.25 3.5625C6.5625 3.5625 2.8125 7.37109 2.8125 12C2.8125 12.7617 3.04688 13.875 3.69141 15.3984C4.27734 16.8047 5.15625 18.4453 6.15234 20.0859C7.85156 22.7812 9.78516 25.3594 11.25 27.2344C12.6562 25.3594 14.5898 22.7812 16.2891 20.0859C17.2852 18.4453 18.1641 16.8047 18.75 15.3984C19.3945 13.875 19.6875 12.7617 19.6875 12C19.6875 7.37109 15.8789 3.5625 11.25 3.5625Z" fill="#676767"/>
</svg>
