<svg width="10" height="11" viewBox="0 0 10 11" fill="none" xmlns="http://www.w3.org/2000/svg">
    <path d="M9.33594 6.46094L5.39844 10.5859C5.28125 10.7031 5.14062 10.75 5 10.75C4.83594 10.75 4.69531 10.7031 4.57812 10.5859L0.640625 6.46094C0.429688 6.22656 0.429688 5.875 0.664062 5.66406C0.875 5.45312 1.25 5.45312 1.46094 5.6875L4.4375 8.80469V0.835938C4.4375 0.507812 4.67188 0.273438 4.97656 0.273438C5.25781 0.273438 5.5625 0.507812 5.5625 0.835938V8.80469L8.51562 5.6875C8.72656 5.45312 9.10156 5.45312 9.3125 5.66406C9.54688 5.875 9.54688 6.22656 9.33594 6.46094Z" fill="black"/>
</svg>
