<svg width="13" height="14" viewBox="0 0 13 14" fill="none" xmlns="http://www.w3.org/2000/svg">
<path fill-rule="evenodd" clip-rule="evenodd" d="M6.50005 12.2C9.37193 12.2 11.7 9.87193 11.7 7.00005C11.7 4.12817 9.37193 1.80005 6.50005 1.80005C3.62817 1.80005 1.30005 4.12817 1.30005 7.00005C1.30005 9.87193 3.62817 12.2 6.50005 12.2ZM8.90967 6.15967C9.16351 5.90583 9.16351 5.49427 8.90967 5.24043C8.65582 4.98659 8.24427 4.98659 7.99043 5.24043L5.85005 7.38081L5.00967 6.54043C4.75583 6.28659 4.34427 6.28659 4.09043 6.54043C3.83659 6.79427 3.83659 7.20583 4.09043 7.45967L5.39043 8.75967C5.64427 9.01351 6.05583 9.01351 6.30967 8.75967L8.90967 6.15967Z" fill="white"/>
</svg>
