<svg width="38" height="31" viewBox="0 0 38 31" fill="none" xmlns="http://www.w3.org/2000/svg">
<path d="M34.6875 8.25C36.2109 8.25 37.5 9.53906 37.5 11.0625V22.3125C37.5 23.8945 36.2109 25.125 34.6875 25.125H24.375V22.3125H34.6875V11.0625H15.9375V12H13.125V11.0625C13.125 9.53906 14.3555 8.25 15.9375 8.25H34.6875ZM6.5625 3.5625V12H3.75V3.5625C3.75 2.03906 4.98047 0.75 6.5625 0.75H25.3125C26.8359 0.75 28.125 2.03906 28.125 3.5625V6.375H25.3125V3.5625H6.5625ZM19.6875 13.875C21.2109 13.875 22.5 15.1641 22.5 16.6875V27.9375C22.5 29.5195 21.2109 30.75 19.6875 30.75H2.8125C1.23047 30.75 0 29.5195 0 27.9375V16.6875C0 15.1641 1.23047 13.875 2.8125 13.875H19.6875ZM19.6875 27.9375V20.9062C18.8086 21.5508 15 24.3633 15 24.3633C14.1211 25.0078 12.7148 26.0625 11.25 26.0625C9.72656 26.0625 8.32031 25.0078 7.5 24.3633C7.5 24.3633 3.63281 21.5508 2.8125 20.9062V27.9375H19.6875ZM19.6875 17.5078V16.6875H2.8125V17.332C2.92969 17.3906 9.19922 22.0781 9.375 22.2539C9.90234 22.6641 10.6641 23.25 11.25 23.25C11.6602 23.25 12.3047 22.8398 12.7734 22.5469C13.125 22.3125 19.5117 17.625 19.6875 17.5078ZM29.0625 12.9375H32.8125V16.6875H29.0625V12.9375Z" fill="#676767"/>
</svg>
