<svg width="30" height="31" viewBox="0 0 30 31" fill="none" xmlns="http://www.w3.org/2000/svg">
<path d="M30 15.75C30 24.0703 23.2617 30.75 15 30.75C6.67969 30.75 0 24.0703 0 15.75C0 12.6445 0.9375 9.77344 2.57812 7.37109C2.98828 6.72656 3.86719 6.55078 4.51172 6.96094C5.15625 7.42969 5.33203 8.30859 4.86328 8.95312C3.57422 10.8867 2.75391 13.2305 2.75391 15.75C2.75391 22.4883 8.26172 27.9375 14.9414 27.9375C21.6797 27.9375 27.1875 22.4883 27.1875 15.75C27.1875 9.53906 22.4414 4.38281 16.4062 3.67969V6.84375C16.4062 7.66406 15.7617 8.25 14.9414 8.25C14.1797 8.25 13.5352 7.66406 13.5352 6.84375V2.15625C13.5352 1.39453 14.1797 0.75 14.9414 0.75C23.2617 0.75 30 7.48828 30 15.75ZM15.9375 14.7539C16.5234 15.3398 16.5234 16.2188 15.9375 16.7461C15.4102 17.332 14.5312 17.332 14.0039 16.7461L9.31641 12.0586C8.73047 11.5312 8.73047 10.6523 9.31641 10.0664C9.84375 9.53906 10.7227 9.53906 11.25 10.0664L15.9375 14.7539Z" fill="#676767"/>
</svg>
