<svg width="13" height="13" viewBox="0 0 13 13" fill="none" xmlns="http://www.w3.org/2000/svg">
    <path d="M4.55005 1.94995C4.19106 1.94995 3.90005 2.24097 3.90005 2.59995C3.90005 2.95894 4.19106 3.24995 4.55005 3.24995H8.45005C8.80903 3.24995 9.10005 2.95894 9.10005 2.59995C9.10005 2.24097 8.80903 1.94995 8.45005 1.94995H4.55005Z" fill="#000000"/>
    <path d="M2.60005 4.54995C2.60005 4.19097 2.89106 3.89995 3.25005 3.89995H9.75005C10.109 3.89995 10.4 4.19097 10.4 4.54995C10.4 4.90894 10.109 5.19995 9.75005 5.19995H3.25005C2.89106 5.19995 2.60005 4.90894 2.60005 4.54995Z" fill="#000000"/>
    <path d="M1.30005 7.14995C1.30005 6.43198 1.88208 5.84995 2.60005 5.84995H10.4C11.118 5.84995 11.7 6.43198 11.7 7.14995V9.74995C11.7 10.4679 11.118 11.05 10.4 11.05H2.60005C1.88208 11.05 1.30005 10.4679 1.30005 9.74995V7.14995Z" fill="#000000"/>
</svg>
