<svg width="13" height="13" viewBox="0 0 13 13" fill="none" xmlns="http://www.w3.org/2000/svg">
    <path fill-rule="evenodd" clip-rule="evenodd" d="M1.3 1C0.58203 1 0 1.58203 0 2.3V9.45C0 10.527 0.873045 11.4 1.95 11.4C3.02696 11.4 3.9 10.527 3.9 9.45V2.3C3.9 1.58203 3.31797 1 2.6 1H1.3ZM1.95 10.1C2.30899 10.1 2.6 9.80898 2.6 9.45C2.6 9.09101 2.30899 8.8 1.95 8.8C1.59101 8.8 1.3 9.09101 1.3 9.45C1.3 9.80898 1.59101 10.1 1.95 10.1Z" fill="#000000"/>
    <path d="M5.2 8.95766L8.38466 5.773C8.89235 5.26532 8.89235 4.4422 8.38466 3.93452L7.46543 3.01528C6.95774 2.5076 6.13463 2.5076 5.62695 3.01528L5.2 3.44223V8.95766Z" fill="#000000"/>
    <path d="M9.10002 11.4H4.59618L8.49618 7.5H9.10002C9.81799 7.5 10.4 8.08203 10.4 8.8V10.1C10.4 10.818 9.81799 11.4 9.10002 11.4Z" fill="#000000"/>
</svg>
