<svg width="13" height="13" viewBox="0 0 13 13" fill="none" xmlns="http://www.w3.org/2000/svg">
    <path d="M11.6507 1.70124C11.6192 1.62514 11.5727 1.55381 11.511 1.49181C11.5101 1.49089 11.5092 1.48997 11.5083 1.48905C11.3908 1.37224 11.2288 1.30005 11.05 1.30005H8.45005C8.09106 1.30005 7.80005 1.59106 7.80005 1.95005C7.80005 2.30903 8.09106 2.60005 8.45005 2.60005H9.48081L7.34043 4.74043C7.08659 4.99427 7.08659 5.40583 7.34043 5.65967C7.59427 5.91351 8.00583 5.91351 8.25967 5.65967L10.4 3.51929V4.55005C10.4 4.90903 10.6911 5.20005 11.05 5.20005C11.409 5.20005 11.7 4.90903 11.7 4.55005V1.95005C11.7 1.86192 11.6825 1.77788 11.6507 1.70124Z" fill="#000000"/>
    <path d="M1.30005 1.95005C1.30005 1.59106 1.59106 1.30005 1.95005 1.30005H3.34942C3.66716 1.30005 3.93834 1.52977 3.99057 1.84319L4.47113 4.72651C4.51804 5.00798 4.37589 5.28713 4.12066 5.41474L3.11437 5.91789C3.83996 7.72096 5.27914 9.16014 7.08221 9.88573L7.58535 8.87944C7.71297 8.62421 7.99212 8.48206 8.27359 8.52897L11.1569 9.00952C11.4703 9.06176 11.7 9.33294 11.7 9.65068V11.05C11.7 11.409 11.409 11.7 11.05 11.7H9.75005C5.08324 11.7 1.30005 7.91685 1.30005 3.25005V1.95005Z" fill="#000000"/>
</svg>
