<svg width="30" height="25" viewBox="0 0 30 25" fill="none" xmlns="http://www.w3.org/2000/svg">
    <path d="M5.15625 0.5625C5.91797 0.5625 6.5625 1.20703 6.5625 1.96875V4.78125C6.5625 5.60156 5.91797 6.1875 5.15625 6.1875H2.34375C1.52344 6.1875 0.9375 5.60156 0.9375 4.78125V1.96875C0.9375 1.20703 1.52344 0.5625 2.34375 0.5625H5.15625ZM28.5938 1.96875C29.3555 1.96875 30 2.61328 30 3.375C30 4.19531 29.3555 4.78125 28.5938 4.78125H10.7812C9.96094 4.78125 9.375 4.19531 9.375 3.375C9.375 2.61328 9.96094 1.96875 10.7812 1.96875H28.5938ZM28.5938 11.3438C29.3555 11.3438 30 11.9883 30 12.75C30 13.5703 29.3555 14.1562 28.5938 14.1562H10.7812C9.96094 14.1562 9.375 13.5703 9.375 12.75C9.375 11.9883 9.96094 11.3438 10.7812 11.3438H28.5938ZM28.5938 20.7188C29.3555 20.7188 30 21.3633 30 22.125C30 22.9453 29.3555 23.5312 28.5938 23.5312H10.7812C9.96094 23.5312 9.375 22.9453 9.375 22.125C9.375 21.3633 9.96094 20.7188 10.7812 20.7188H28.5938ZM0.9375 11.3438C0.9375 10.582 1.52344 9.9375 2.34375 9.9375H5.15625C5.91797 9.9375 6.5625 10.582 6.5625 11.3438V14.1562C6.5625 14.9766 5.91797 15.5625 5.15625 15.5625H2.34375C1.52344 15.5625 0.9375 14.9766 0.9375 14.1562V11.3438ZM5.15625 19.3125C5.91797 19.3125 6.5625 19.957 6.5625 20.7188V23.5312C6.5625 24.3516 5.91797 24.9375 5.15625 24.9375H2.34375C1.52344 24.9375 0.9375 24.3516 0.9375 23.5312V20.7188C0.9375 19.957 1.52344 19.3125 2.34375 19.3125H5.15625Z" fill="#676767"/>
</svg>
