<svg width="28" height="31" viewBox="0 0 28 31" fill="none" xmlns="http://www.w3.org/2000/svg">
    <path d="M27.125 27.9375C27.125 29.5195 25.8359 30.75 24.2539 30.75H3.62891C2.10547 30.75 0.875 29.5195 0.875 27.9375C0.699219 22.8398 4.33203 18.5039 9.19531 17.625L14 24.0703L18.7461 17.625C23.6094 18.5625 27.2422 22.8398 27.125 27.9375ZM3.6875 27.9375H13.4141L8.08203 20.9062C5.38672 22.0781 3.57031 24.7734 3.6875 27.8789V27.9375ZM24.2539 27.9375V27.8789C24.3711 24.7734 22.5547 22.0781 19.8594 20.9062L14.5273 27.9375H24.2539ZM1.63672 5.4375C0.582031 5.20312 0.582031 3.85547 1.63672 3.62109L12.8281 0.925781C13.1797 0.808594 13.5898 0.75 14 0.75C14.3516 0.75 14.7617 0.808594 15.1133 0.925781L26.3047 3.62109C27.3594 3.85547 27.3594 5.20312 26.3047 5.4375L21.5 6.60938V9.1875C21.5 13.3477 18.1016 16.6875 14 16.6875C9.83984 16.6875 6.5 13.3477 6.5 9.1875V6.60938L3.45312 5.90625V8.95312C3.86328 9.1875 4.15625 9.65625 4.15625 10.125C4.15625 10.6523 3.86328 11.0625 3.45312 11.2969L4.39062 14.9883C4.50781 15.3398 4.27344 15.75 3.92188 15.75H1.51953C1.16797 15.75 0.933594 15.3398 1.05078 14.9297L1.98828 11.2969C1.57812 11.0625 1.34375 10.6523 1.34375 10.125C1.34375 9.65625 1.63672 9.1875 2.04688 8.95312V5.55469L1.63672 5.4375ZM9.3125 7.3125V9.1875C9.3125 11.8242 11.3633 13.875 14 13.875C16.5781 13.875 18.6875 11.8242 18.6875 9.1875V7.3125L15.1133 8.13281C14.3516 8.30859 13.5898 8.30859 12.8281 8.13281L9.3125 7.3125Z" fill="#676767"/>
</svg>
