<svg width="13" height="13" viewBox="0 0 13 13" fill="none" xmlns="http://www.w3.org/2000/svg">
    <path d="M8.4499 3.89995C8.4499 4.97691 7.57685 5.84995 6.4999 5.84995C5.42294 5.84995 4.5499 4.97691 4.5499 3.89995C4.5499 2.823 5.42294 1.94995 6.4999 1.94995C7.57685 1.94995 8.4499 2.823 8.4499 3.89995Z" fill="#000000"/>
    <path d="M11.6999 5.19995C11.6999 5.91792 11.1179 6.49995 10.3999 6.49995C9.68192 6.49995 9.0999 5.91792 9.0999 5.19995C9.0999 4.48198 9.68192 3.89995 10.3999 3.89995C11.1179 3.89995 11.6999 4.48198 11.6999 5.19995Z" fill="#000000"/>
    <path d="M9.0999 9.74995C9.0999 8.31401 7.93584 7.14995 6.4999 7.14995C5.06396 7.14995 3.8999 8.31401 3.8999 9.74995V11.7H9.0999V9.74995Z" fill="#000000"/>
    <path d="M3.8999 5.19995C3.8999 5.91792 3.31787 6.49995 2.5999 6.49995C1.88193 6.49995 1.2999 5.91792 1.2999 5.19995C1.2999 4.48198 1.88193 3.89995 2.5999 3.89995C3.31787 3.89995 3.8999 4.48198 3.8999 5.19995Z" fill="#000000"/>
    <path d="M10.3999 11.7V9.74995C10.3999 9.06476 10.2232 8.42083 9.91287 7.86126C10.0685 7.82124 10.2317 7.79995 10.3999 7.79995C11.4768 7.79995 12.3499 8.673 12.3499 9.74995V11.7H10.3999Z" fill="#000000"/>
    <path d="M3.08692 7.86126C2.7766 8.42083 2.5999 9.06476 2.5999 9.74995V11.7H0.649902V9.74995C0.649902 8.673 1.52295 7.79995 2.5999 7.79995C2.76806 7.79995 2.93125 7.82124 3.08692 7.86126Z" fill="#000000"/>
</svg>
