<svg width="13" height="13" viewBox="0 0 13 13" fill="none" xmlns="http://www.w3.org/2000/svg">
    <path fill-rule="evenodd" clip-rule="evenodd" d="M3.90005 3.90005V3.25005C3.90005 2.17309 4.77309 1.30005 5.85005 1.30005H7.15004C8.227 1.30005 9.10004 2.17309 9.10004 3.25005V3.90005H10.4C11.118 3.90005 11.7 4.48208 11.7 5.20005V7.52104C10.0813 8.12162 8.32972 8.45001 6.50006 8.45001C4.67039 8.45001 2.91879 8.12162 1.30005 7.52103V5.20005C1.30005 4.48208 1.88208 3.90005 2.60005 3.90005H3.90005ZM5.20005 3.25005C5.20005 2.89106 5.49106 2.60005 5.85005 2.60005H7.15004C7.50903 2.60005 7.80004 2.89106 7.80004 3.25005V3.90005H5.20005V3.25005ZM5.85005 6.50005C5.85005 6.14106 6.14106 5.85005 6.50004 5.85005H6.50655C6.86553 5.85005 7.15654 6.14106 7.15654 6.50005C7.15654 6.85903 6.86553 7.15005 6.50655 7.15005H6.50004C6.14106 7.15005 5.85005 6.85903 5.85005 6.50005Z" fill="#000000"/>
    <path d="M1.30005 8.90002V10.4C1.30005 11.118 1.88208 11.7 2.60005 11.7H10.4C11.118 11.7 11.7 11.118 11.7 10.4V8.90003C10.0667 9.45134 8.31771 9.75001 6.50006 9.75001C4.6824 9.75001 2.93336 9.45133 1.30005 8.90002Z" fill="#000000"/>
</svg>
