<svg width="13" height="13" viewBox="0 0 13 13" fill="none" xmlns="http://www.w3.org/2000/svg">
    <path d="M6.50005 1.30005C6.14106 1.30005 5.85005 1.59106 5.85005 1.95005V2.60005C5.85005 2.95903 6.14106 3.25005 6.50005 3.25005C6.85903 3.25005 7.15005 2.95903 7.15005 2.60005V1.95005C7.15005 1.59106 6.85903 1.30005 6.50005 1.30005Z" fill="#000000"/>
    <path fill-rule="evenodd" clip-rule="evenodd" d="M2.60005 2.60005H4.55005C4.55005 3.677 5.42309 4.55005 6.50005 4.55005C7.577 4.55005 8.45005 3.677 8.45005 2.60005H10.4C11.118 2.60005 11.7 3.18208 11.7 3.90005V9.75005C11.7 10.468 11.118 11.05 10.4 11.05H2.60005C1.88208 11.05 1.30005 10.468 1.30005 9.75005V3.90005C1.30005 3.18208 1.88208 2.60005 2.60005 2.60005ZM4.22505 7.15005C4.76353 7.15005 5.20005 6.71353 5.20005 6.17505C5.20005 5.63657 4.76353 5.20005 4.22505 5.20005C3.68657 5.20005 3.25005 5.63657 3.25005 6.17505C3.25005 6.71353 3.68657 7.15005 4.22505 7.15005ZM5.81786 9.75005C5.83918 9.64504 5.85037 9.53635 5.85037 9.42505C5.85037 8.52759 5.12283 7.80005 4.22537 7.80005C3.3279 7.80005 2.60037 8.52759 2.60037 9.42505C2.60037 9.53635 2.61156 9.64504 2.63287 9.75005H5.81786ZM7.80005 5.85005C7.44106 5.85005 7.15005 6.14106 7.15005 6.50005C7.15005 6.85903 7.44106 7.15005 7.80005 7.15005H9.75005C10.109 7.15005 10.4 6.85903 10.4 6.50005C10.4 6.14106 10.109 5.85005 9.75005 5.85005H7.80005ZM7.15005 8.45005C7.15005 8.09106 7.44106 7.80005 7.80005 7.80005H9.10005C9.45903 7.80005 9.75005 8.09106 9.75005 8.45005C9.75005 8.80903 9.45903 9.10005 9.10005 9.10005H7.80005C7.44106 9.10005 7.15005 8.80903 7.15005 8.45005Z" fill="#000000"/>
</svg>
