<svg width="13" height="13" viewBox="0 0 13 13" fill="none" xmlns="http://www.w3.org/2000/svg">
    <path fill-rule="evenodd" clip-rule="evenodd" d="M11.7001 6.50005C11.7001 9.37193 9.37194 11.7 6.50006 11.7C3.62817 11.7 1.30005 9.37193 1.30005 6.50005C1.30005 3.62817 3.62817 1.30005 6.50006 1.30005C9.37194 1.30005 11.7001 3.62817 11.7001 6.50005ZM7.15006 3.90005C7.15006 4.25903 6.85904 4.55005 6.50006 4.55005C6.14107 4.55005 5.85006 4.25903 5.85006 3.90005C5.85006 3.54106 6.14107 3.25005 6.50006 3.25005C6.85904 3.25005 7.15006 3.54106 7.15006 3.90005ZM5.85006 5.85005C5.49107 5.85005 5.20005 6.14106 5.20005 6.50005C5.20005 6.85903 5.49107 7.15005 5.85006 7.15005V9.10005C5.85006 9.45903 6.14107 9.75005 6.50006 9.75005H7.15006C7.50904 9.75005 7.80006 9.45903 7.80006 9.10005C7.80006 8.74106 7.50904 8.45005 7.15006 8.45005V6.50005C7.15006 6.14106 6.85904 5.85005 6.50006 5.85005H5.85006Z" fill="#000000"/>
</svg>
